<svg xmlns="http://www.w3.org/2000/svg" viewBox="0 0 581.46 263.35">
  <defs>
    <style>
      .cls-1 {
        fill: #fff;
      }
    </style>
  </defs>
  <g>
    <g>
      <path class="cls-1" d="m468.68,184.48c.17-.34.04-.52-.18-.57-9.35,3.72-29.81,7.45-42.55,9.34-11.01,1.65-20.46,1.92-25.75,2.29l-2.39.19c-.28.05-.44.22-.48.44-.07.2.09.34.24.47.96,1.07,4.07,3.97,10.27,4.88,7.12.98,17.7-.88,30.89-4.69,11.07-3.17,23.74-8.63,29.94-12.36Z"/>
      <path class="cls-1" d="m469.64,190.02c-5.93,4.06-13.97,7.96-23.59,11.29-9.76,3.39-20.26,6.27-31.7,8.15-.22.07-.4.21-.45.43,0,.15.06.31.15.39,1.88,1.5,4.31,2.37,7.3,2.69,3.68.41,8.12-.08,13.22-1.42,4.54-1.21,8.87-3.21,13.79-5.58,4.67-2.26,9.13-4.89,12.92-7.61,3.88-2.76,6.8-5.47,8.62-7.85.03-.33-.09-.48-.26-.51Z"/>
      <path class="cls-1" d="m421.6,85.32c2.37,2.54,5.44,4.37,9.18,5.54l.28.1c1.05.28,63.37,16.69,79.88,21.14,7.22,1.94,12.94,3.5,15.61,4.26.28.02.42-.09.46-.26,0-.13-.08-.26-.24-.33-10.43-4.19-74.66-28.83-98.85-38.09l-10.19-3.94c-.34-.04-.51-.02-.64.11-.1.11-.12.30-.11.39.09.87.61,5.5,2.69,8.66.6.92,1.24,1.71,1.93,2.42Z"/>
      <path class="cls-1" d="m424.29,60.8c1.25,1.54,2.43,2.53,4.71,3.91.76.46,1.53.96,2.4,1.37l5.75,2.91c3.27,1.65,51.41,24.08,58.43,27.57,8.33,4.09,16.63,8.01,20.27,9.84.36.07.54-.04.44-.46-8.96-5.59-43.41-27.26-68-42.45l-17.63-10.66-3.22-1.98-5.99-3.63c-.33-.12-.48-.09-.6,0-.19.07-.25.23-.25.35-.06.83-.14,5.35,1.25,8.8.64,1.51,1.44,3.13,2.44,4.44Z"/>
      <path class="cls-1" d="m467.66,200.8c-.08,0-.21.01-.29.06-7.97,7.85-19.75,12.27-23.64,13.47-.22.03-.37.20-.42.41,0,.19.14.41.31.50.61.30,5.34,2.85,14.32-1.69,5.11-2.58,7.69-6.74,10-12.27.09-.33-.11-.46-.27-.47Z"/>
      <path class="cls-1" d="m525,134.81c-4.01,1.13-19.28,5.08-32.78,8.50-11.67,3.01-24.77,6.58-24.77,6.58-1.38.34-.87.91-.72,1.12.34.55,1.10,1.74,1.97,3.20,2.09,3.51,4.95,3.06,7.50,2.16.48-.16,47.02-19.57,49.12-20.98.36-.20.13-.37.11-.48-.04-.14-.29-.10-.42-.10Z"/>
      <path class="cls-1" d="m504.56,167.09l-.29.11c-6.15,5.11-15.52,13.30-25.23,21.56-.92.74-1.27,2.11-1.66,3.78-.61,2.76-2.03,6.36-2.03,6.36-.28.82.11,1.16.89.36,7.48-8.06,24.05-26.38,28.54-31.62.09-.35-.04-.52-.23-.55Z"/>
      <path class="cls-1" d="m534.04,122.4c-8.27-1.53-108.85-19.36-108.91-19.36-.18-.02-.39.09-.55.23-.07.19-.03.39.02.60,1.63,5.20,5.56,10.41,12.34,12.51.79.24,1.45.32,2.20.39,0,0,85.29,5.59,94.79,6.25.24,0,.40-.10.40-.27s-.12-.32-.29-.34Z"/>
      <path class="cls-1" d="m529.85,128.14c-3,.09-9.15.11-16.83.14-8.86.04-19.80.08-30,.10-13.71.04-35.48.18-35.48.18-.14.02-.31.09-.42.24-.10.16-.10.30.02.44.29.92,1.56,3.25,2.93,4.70,2.75,2.84,5.71,4.33,8.80,4.65.37.04.73.04,1.10.04s.73-.05,1.15-.12c.41-.05,65.24-9.18,68.75-9.74.16-.03.28-.15.31-.28,0-.17-.15-.35-.33-.36Z"/>
      <path class="cls-1" d="m519.79,143.87c-4.46,2.75-16.09,9.86-26.02,15.83-5.57,3.38-12.58,7.30-16.22,9.56-.42.26-.77.25-.56,1.38,0,0,.16,1.08.28,2.36.39,5.39,2.57,4.79,5.83,2.30l.38-.31c11.20-9.22,31.99-26.72,36.52-30.52.12-.39,0-.53-.22-.60Z"/>
    </g>
    <path class="cls-1" d="m332.2,85.49c-22.29.03-43.25,16.45-44.16,48.42-.81,29.08,14.33,49.44,39.96,49.44,21.06,0,28.46-14.68,28.46-14.68,1.20,9.83,6.52,12.82,17.08,12.82v-96h-41.34Zm23.25,56.56c0,13.29-7.61,25.93-24.17,25.93-14.80,0-25.40-9.95-24.73-33.88.66-22.97,11.72-33.07,26.33-33.07,1.15,0,2.22-.05,3.26-.14v.02h19.31v41.14Z"/>
    <path class="cls-1" d="m190.2,85.49l.06,66.57c0,9.72-8.03,14.59-18.63,14.59-11.16,0-18.47-4.87-18.47-14.59l-.14-49.81c-.02-14.20-8.90-16.76-16.72-16.76v70.66c0,17.85,16.04,26.60,34.78,26.60s35.97-8.75,35.97-26.60l-.02-51.73c0-13.97-5.25-18.93-16.84-18.93Z"/>
    <path class="cls-1" d="m96.6,128.48l-20.5-5.63c-5.64-1.56-10.79-4.01-10.79-10.89s4.34-10.68,13.45-10.68h18.23c8.06,0,17.66-2.68,17.68-15.80l-34.31.03c-21.13.02-33.23,10.69-33.23,25.99,0,14.24,9.04,22.23,25.16,26.52l17.84,4.72c7.38,1.99,10.01,6.60,10.01,11.33,0,7.21-4.55,11.57-15.62,11.63l-34.26.27v15.51h34.83c21.12,0,33.23-11.35,33.23-26.28s-5.92-22.43-21.73-26.73Z"/>
    <path class="cls-1" d="m264.72,85.49c-20.77,0-35.07,12-35.07,36.72v59.29h16.72v-59.86c0-12.72,6.86-20.35,19.79-20.35h4.97c14.67,0,17.06-7.59,17.06-15.80h-23.47Z"/>
  </g>
</svg>
